# xmcd
#
# Track frame offsets: 
#        150
#        11664
#        18579
#        29848
#        40115
#        50643
#        59191
#        70932
#        79598
#        90316
#        100589
#        109065
#
# Disc length: 1614 seconds
#
# Revision: 0
# Processed by: cddbd v1.4PL0 Copyright (c) Steve Scherf et al.
# Submitted via: ExactAudioCopy v0.95a3
#
DISCID=9b064c0c
DTITLE=Waylon Jennings - 
DYEAR=1900
DGENRE=country
TTITLE0=Sally Was A Good Old Girl
TTITLE1=It's So Easy
TTITLE2=Big Mamou
TTITLE3=White Lightening
TTITLE4=Burning Memories
TTITLE5=Love's Gonna Live Here
TTITLE6=Crying
TTITLE7=Jole Blon
TTITLE8=Dream Baby
TTITLE9=Money
TTITLE10=Abilene
TTITLE11=Don't Think Twice, It's All Right
EXTD=
EXTT0=
EXTT1=
EXTT2=
EXTT3=
EXTT4=
EXTT5=
EXTT6=
EXTT7=
EXTT8=
EXTT9=
EXTT10=
EXTT11=
PLAYORDER=
